<svg width="20" height="20" viewBox="0 0 72 70" fill="none" xmlns="http://www.w3.org/2000/svg">
<g clip-path="url(#clip0_416_3068)">
<path d="M58.05 29.2833C56.01 19.2208 46.92 11.6667 36 11.6667C27.33 11.6667 19.8 16.45 16.05 23.45C7.02 24.3833 0 31.8208 0 40.8333C0 50.4875 8.07 58.3333 18 58.3333H57C65.28 58.3333 72 51.8 72 43.75C72 36.05 65.85 29.8083 58.05 29.2833ZM57 52.5H18C11.37 52.5 6 47.2792 6 40.8333C6 34.8542 10.59 29.8667 16.68 29.2542L19.89 28.9333L21.39 26.1625C24.24 20.825 29.82 17.5 36 17.5C43.86 17.5 50.64 22.925 52.17 30.4208L53.07 34.7958L57.66 35.1167C62.34 35.4083 66 39.2292 66 43.75C66 48.5625 61.95 52.5 57 52.5V52.5ZM24 37.9167H31.65V46.6667H40.35V37.9167H48L36 26.25L24 37.9167Z" fill="#323232"/>
</g>
<defs>
<clipPath id="clip0_416_3068">
<rect width="72" height="70" fill="white"/>
</clipPath>
</defs>
</svg>
