<svg width="60" height="47" viewBox="0 0 60 47" fill="none" xmlns="http://www.w3.org/2000/svg">
<path d="M55.8328 7H30.4995L23.6663 0.5H4.66633C1.183 0.5 0.99944 1.51667 0.99944 5L0.967773 43C0.967773 46.4833 1.183 47 4.66633 47H55.333C58.8163 47 59.9995 46.4833 59.9995 43V11.3333C59.9995 7.85 59.3162 7 55.8328 7ZM55.8328 43H5.49951V5H21.038L27.3713 11.3333H55.8328V43ZM39.4997 27.1667C42.983 27.1667 45.833 24.3167 45.833 20.8333C45.833 17.35 42.983 14.5 39.4997 14.5C36.0163 14.5 33.1663 17.35 33.1663 20.8333C33.1663 24.3167 36.0163 27.1667 39.4997 27.1667ZM26.833 39.8333H52.1663V36.6667C52.1663 32.455 43.7113 30.3333 39.4997 30.3333C35.288 30.3333 26.833 32.455 26.833 36.6667V39.8333Z" fill="#323232"/>
</svg>
