<svg width="36" height="36" viewBox="0 0 36 36" fill="none" xmlns="http://www.w3.org/2000/svg">
<path d="M6.62999 30.8685C6.20921 30.8678 5.80809 30.6903 5.52449 30.3795C5.23566 30.0712 5.09214 29.6543 5.12999 29.2335L5.49749 25.1925L22.4745 8.2215L27.78 13.5255L10.8075 30.495L6.76649 30.8625C6.71999 30.867 6.67349 30.8685 6.62999 30.8685ZM28.839 12.465L23.535 7.161L26.7165 3.9795C26.9978 3.69783 27.3796 3.53957 27.7777 3.53957C28.1759 3.53957 28.5576 3.69783 28.839 3.9795L32.0205 7.161C32.3022 7.44235 32.4604 7.82413 32.4604 8.22225C32.4604 8.62036 32.3022 9.00214 32.0205 9.2835L28.8405 12.4635L28.839 12.465Z" fill="#343A40"/>
</svg>
